<svg xmlns="http://www.w3.org/2000/svg" viewBox="0 0 256 256">
  <!-- Sun -->
  <g transform="translate(196,56)">
    <circle r="22" fill="#FDD835"/>
    <line x1="0" y1="-34" x2="0" y2="-28" stroke="#FDD835" stroke-width="5" stroke-linecap="round"/>
    <line x1="0"  y1="28"  x2="0"  y2="34" stroke="#FDD835" stroke-width="5" stroke-linecap="round"/>
    <line x1="-34" y1="0" x2="-28" y2="0" stroke="#FDD835" stroke-width="5" stroke-linecap="round"/>
    <line x1="28"  y1="0" x2="34"  y2="0" stroke="#FDD835" stroke-width="5" stroke-linecap="round"/>
    <line x1="-24" y1="-24" x2="-20" y2="-20" stroke="#FDD835" stroke-width="5" stroke-linecap="round"/>
    <line x1="20"  y1="20"  x2="24"  y2="24"  stroke="#FDD835" stroke-width="5" stroke-linecap="round"/>
    <line x1="24"  y1="-24" x2="20"  y2="-20" stroke="#FDD835" stroke-width="5" stroke-linecap="round"/>
    <line x1="-20" y1="20"  x2="-24" y2="24"  stroke="#FDD835" stroke-width="5" stroke-linecap="round"/>
  </g>

  <!-- Battery shell -->
  <rect x="16" y="96" width="196" height="100" rx="16" fill="#2E7D32"/>
  <!-- Battery terminal -->
  <rect x="212" y="120" width="28" height="52" rx="8" fill="#2E7D32"/>

  <!-- Charge fill (~70%) -->
  <rect x="26" y="106" width="128" height="80" rx="10" fill="#43A047"/>

  <!-- Lightning bolt -->
  <path d="M122 114 L100 152 H118 L110 186 L150 140 H130 Z" fill="white" opacity="0.95"/>
</svg>
